cover
 
http://img822.imageshack.us/img822/2628/highrisk1.jpg

**English subtitles included**

Shu dan long wei (1995)
After failing to save his wife from 'The Doctor', Kit Li is working as a bodyguard and secret stunt double for the cowardly martial arts film star Frankie Lane. Frankie attends an exhibition of the crown jewels of Russia at a Hong Kong hotel, and when the Doctor's gang take over the building in attempt to steal them, Kit is the only thing standing in their way. Will Frankie regain his courage? Will romance blossom between Kit and the nosy reporter? Who has the best Kung-Fu?

 
http://www.imdb.com/title/tt0114437/

General Info:
Format : AVI
Format/Info : Audio Video Interleave
File size : 1.42 GiB
Duration : 1h 40mn
Overall bit rate : 2 015 Kbps
Writing application : VirtualDubMod 1.5.4.1 (build 2178/release)
Writing library : VirtualDubMod build 2178/release

Video
ID : 0
Format : MPEG-4 Visual
Format profile : Simple@L3
Format settings, BVOP : Yes
Format settings, QPel : No
Format settings, GMC : No warppoints
Format settings, Matrix : Custom
Codec ID : XVID
Codec ID/Hint : XviD
Duration : 1h 40mn
Bit rate : 1 253 Kbps
Width : 672 pixels
Height : 368 pixels
Display aspect ratio : 16:9
Frame rate : 29.970 fps
Color space : YUV
Chroma subsampling : 4:2:0
Bit depth : 8 bits
Scan type : Progressive
Bits/(Pixel*Frame) : 0.169
Stream size : 902 MiB (62%)
Writing library : XviD 1.1.0 Beta2 (UTC 2005-04-04)

Audio
ID : 1
Format : DTS
Format/Info : Digital Theater Systems
Codec ID : 2001
Codec ID/Info : Digital Theater Systems
Duration : 1h 40mn
Bit rate mode : Constant
Bit rate : 755 Kbps
Channel(s) : 6 channels
Channel positions : Front: L C R, Side: L R, LFE
Sampling rate : 48.0 KHz
Bit depth : 16 bits
Stream size : 543 MiB (37%)
Alignment : Split accross interleaves
Interleave, duration : 96 ms (2.88 video frames)
Interleave, preload duration : 96 ms



screens 
http://img515.imageshack.us/img515/1297/capture016.jpg 
http://img222.imageshack.us/img222/6200/capture029.jpg 
http://img827.imageshack.us/img827/8101/capture035g.jpg 
http://img841.imageshack.us/img841/6195/capture042.jpg
